STARTFONT 2.1
FONT -sun-helmetcondensed-medium-i-semicondensed--24-240-75-75-p-109-adobe-fontspecific
SIZE 24 75 75
FONTBOUNDINGBOX 25 28 -3 -5

STARTPROPERTIES 28
FOUNDRY "sun"
FAMILY_NAME "helmetcondensed"
WEIGHT_NAME "medium"
SLANT "i"
SETWIDTH_NAME "semicondensed"
ADD_STYLE_NAME ""
PIXEL_SIZE 25
POINT_SIZE 240
RESOLUTION_X 75
RESOLUTION_Y 75
SPACING "p"
AVERAGE_WIDTH 109
CHARSET_REGISTRY "adobe"
CHARSET_ENCODING "fontspecific"
COPYRIGHT "© 1999 Sun Microsystems, Inc."
RAW_PIXELSIZE 1000
RAW_POINTSIZE 964
RAW_ASCENT 911
RAW_DESCENT 217
RAW_AVERAGE_WIDTH 4390
FACE_NAME "HelmetCondensedItalicedB5"
_XMBDFED_INFO "Edited with xmbdfed 2.4."
WEIGHT 10
X_HEIGHT -2
QUAD_WIDTH 13
DEFAULT_CHAR 4
FONT_DESCENT 5
FONT_ASCENT 23
ENDPROPERTIES

CHARS 210

STARTCHAR char32
ENCODING 32
SWIDTH 28 0
DWIDTH 8 0
BBX 0 0 0 0
BITMAP
ENDCHAR

STARTCHAR char33
ENCODING 33
SWIDTH 17 0
DWIDTH 5 0
BBX 6 19 0 -1
BITMAP
0C
08
08
08
18
10
10
10
30
30
20
20
20
20
00
00
00
40
80
ENDCHAR

STARTCHAR char34
ENCODING 34
SWIDTH 25 0
DWIDTH 7 0
BBX 6 7 2 12
BITMAP
24
6C
4C
48
48
D8
90
ENDCHAR

STARTCHAR char35
ENCODING 35
SWIDTH 13 0
DWIDTH 14 0
BBX 13 18 0 0
BITMAP
0460
0460
0C60
0C60
0C60
7FF8
0840
08C0
18C0
18C0
18C0
FFF0
FFF0
1880
1180
1180
3180
3180
ENDCHAR

STARTCHAR char36
ENCODING 36
SWIDTH 3 0
DWIDTH 11 0
BBX 11 20 0 -2
BITMAP
0100
0F80
12C0
3240
2240
2200
3200
1C00
0C00
0700
0500
0880
8880
8880
8880
5180
7300
1C00
1000
1000
ENDCHAR

STARTCHAR char37
ENCODING 37
SWIDTH 31 0
DWIDTH 19 0
BBX 14 18 1 0
BITMAP
1000
3810
4410
4420
4440
8440
8480
8C98
8964
8944
9244
64C4
0484
0884
0884
1088
1088
2070
ENDCHAR

STARTCHAR char38
ENCODING 38
SWIDTH 10 0
DWIDTH 13 0
BBX 12 18 0 0
BITMAP
0700
0900
1080
1080
1080
1100
0B00
0E00
1C00
3400
6600
4330
8120
81E0
80C0
C0C0
63C0
3E40
ENDCHAR

STARTCHAR char39
ENCODING 39
SWIDTH 14 0
DWIDTH 4 0
BBX 3 6 2 12
BITMAP
20
40
40
60
C0
80
ENDCHAR

STARTCHAR char40
ENCODING 40
SWIDTH 28 0
DWIDTH 8 0
BBX 8 22 2 -3
BITMAP
03
06
0C
08
10
30
20
60
40
40
C0
80
80
80
80
80
80
40
40
40
20
20
ENDCHAR

STARTCHAR char41
ENCODING 41
SWIDTH 28 0
DWIDTH 8 0
BBX 8 22 -3 -3
BITMAP
04
02
02
02
01
01
01
01
01
01
01
01
01
02
02
02
04
0C
08
10
30
60
ENDCHAR

STARTCHAR char42
ENCODING 42
SWIDTH 32 0
DWIDTH 9 0
BBX 8 7 2 11
BITMAP
08
08
CB
3C
38
68
44
ENDCHAR

STARTCHAR char43
ENCODING 43
SWIDTH 10 0
DWIDTH 13 0
BBX 11 11 0 2
BITMAP
0200
0200
0200
0200
0200
FFE0
0200
0200
0200
0200
0200
ENDCHAR

STARTCHAR char44
ENCODING 44
SWIDTH 14 0
DWIDTH 4 0
BBX 3 5 -2 -3
BITMAP
20
20
60
60
40
ENDCHAR

STARTCHAR char45
ENCODING 45
SWIDTH 32 0
DWIDTH 9 0
BBX 7 1 1 7
BITMAP
FE
ENDCHAR

STARTCHAR char46
ENCODING 46
SWIDTH 14 0
DWIDTH 4 0
BBX 2 2 -1 -1
BITMAP
40
80
ENDCHAR

STARTCHAR char47
ENCODING 47
SWIDTH 21 0
DWIDTH 6 0
BBX 8 19 -1 -1
BITMAP
01
01
02
02
04
04
04
08
08
10
10
10
20
20
60
40
40
80
80
ENDCHAR

STARTCHAR char48
ENCODING 48
SWIDTH 3 0
DWIDTH 11 0
BBX 9 18 1 0
BITMAP
0E00
1900
3080
2080
6080
4080
4080
4080
4180
8100
8100
8100
8100
8300
8200
8600
C400
7800
ENDCHAR

STARTCHAR char49
ENCODING 49
SWIDTH 3 0
DWIDTH 11 0
BBX 6 18 2 0
BITMAP
04
0C
1C
FC
0C
08
08
18
18
10
10
10
30
30
20
20
20
60
ENDCHAR

STARTCHAR char50
ENCODING 50
SWIDTH 3 0
DWIDTH 11 0
BBX 10 18 0 0
BITMAP
0700
0880
1840
1040
3040
0040
0040
00C0
0080
0380
0600
0C00
3800
2000
6000
C000
8000
FF00
ENDCHAR

STARTCHAR char51
ENCODING 51
SWIDTH 3 0
DWIDTH 11 0
BBX 10 18 0 0
BITMAP
0700
0880
18C0
1040
0040
0040
00C0
0080
0F00
0E00
0100
0180
0080
8080
8180
C100
6300
3E00
ENDCHAR

STARTCHAR char52
ENCODING 52
SWIDTH 3 0
DWIDTH 11 0
BBX 10 18 0 0
BITMAP
0040
00C0
01C0
01C0
0280
0480
0C80
0980
1180
2100
6100
4300
FF80
0200
0200
0200
0600
0600
ENDCHAR

STARTCHAR char53
ENCODING 53
SWIDTH 3 0
DWIDTH 11 0
BBX 10 17 1 0
BITMAP
1FC0
1000
1000
2000
2000
2000
3C00
6200
0100
0100
0100
0100
0100
8200
8200
C400
7800
ENDCHAR

STARTCHAR char54
ENCODING 54
SWIDTH 3 0
DWIDTH 11 0
BBX 9 18 1 0
BITMAP
0F00
1980
1080
2080
2000
4000
4000
5C00
E200
C100
C100
8100
8100
8100
8300
8200
4600
7C00
ENDCHAR

STARTCHAR char55
ENCODING 55
SWIDTH 3 0
DWIDTH 11 0
BBX 9 17 2 0
BITMAP
FF80
0180
0300
0600
0400
0C00
1800
1800
3000
3000
2000
6000
4000
4000
C000
C000
8000
ENDCHAR

STARTCHAR char56
ENCODING 56
SWIDTH 3 0
DWIDTH 11 0
BBX 10 18 0 0
BITMAP
0700
0C80
0840
1040
1040
1040
10C0
0880
1F00
3300
6180
4080
8080
8080
8180
8100
6300
3E00
ENDCHAR

STARTCHAR char57
ENCODING 57
SWIDTH 3 0
DWIDTH 11 0
BBX 10 18 0 0
BITMAP
0700
0980
10C0
1040
2040
2040
2040
20C0
20C0
21C0
1380
0E80
0080
0180
C100
C300
6600
3C00
ENDCHAR

STARTCHAR char58
ENCODING 58
SWIDTH 17 0
DWIDTH 5 0
BBX 5 13 0 -1
BITMAP
10
10
00
00
00
00
00
00
00
00
00
40
80
ENDCHAR

STARTCHAR char59
ENCODING 59
SWIDTH 17 0
DWIDTH 5 0
BBX 6 15 -1 -3
BITMAP
08
08
00
00
00
00
00
00
00
00
20
20
60
20
40
ENDCHAR

STARTCHAR char60
ENCODING 60
SWIDTH 17 0
DWIDTH 15 0
BBX 12 13 1 0
BITMAP
0010
0030
01E0
0780
1E00
7000
C000
F000
3C00
0F00
03C0
0070
0010
ENDCHAR

STARTCHAR char61
ENCODING 61
SWIDTH 10 0
DWIDTH 13 0
BBX 12 5 0 5
BITMAP
FFF0
0000
0000
0000
FFF0
ENDCHAR

STARTCHAR char62
ENCODING 62
SWIDTH 17 0
DWIDTH 15 0
BBX 13 13 1 0
BITMAP
8000
E000
7800
0E00
0380
00F0
0038
0078
01C0
0F00
3C00
F000
8000
ENDCHAR

STARTCHAR char63
ENCODING 63
SWIDTH 35 0
DWIDTH 10 0
BBX 8 19 1 -1
BITMAP
1C
22
41
41
C1
01
02
02
04
08
18
30
20
20
00
00
00
60
40
ENDCHAR

STARTCHAR char64
ENCODING 64
SWIDTH 24 0
DWIDTH 27 0
BBX 17 18 4 0
BITMAP
07F800
1C0E00
300700
600100
41ED80
C33C80
861880
841880
8C1880
881880
883180
883100
C47300
439D00
600100
300200
1C0C00
07F000
ENDCHAR

STARTCHAR char65
ENCODING 65
SWIDTH 3 0
DWIDTH 11 0
BBX 11 18 -2 0
BITMAP
00C0
00E0
01E0
0160
0360
0260
0660
0460
0C60
0C60
1860
1860
3FE0
3060
6060
6020
C020
C020
ENDCHAR

STARTCHAR char66
ENCODING 66
SWIDTH 6 0
DWIDTH 12 0
BBX 11 18 0 0
BITMAP
1F80
19C0
1060
1020
3020
3020
2060
20C0
3F00
6180
6080
40C0
40C0
40C0
C080
C180
8300
FC00
ENDCHAR

STARTCHAR char67
ENCODING 67
SWIDTH 10 0
DWIDTH 13 0
BBX 11 18 1 0
BITMAP
0780
1CC0
3060
2020
2020
6020
4000
4000
4000
C000
8000
8000
80C0
8080
8180
C100
4300
3C00
ENDCHAR

STARTCHAR char68
ENCODING 68
SWIDTH 13 0
DWIDTH 14 0
BBX 12 18 0 0
BITMAP
1F80
1840
1020
1030
3010
3010
3010
2010
2010
6030
6030
6020
4020
4060
C040
C0C0
8380
FE00
ENDCHAR

STARTCHAR char69
ENCODING 69
SWIDTH 35 0
DWIDTH 10 0
BBX 11 18 0 0
BITMAP
1FE0
1800
1000
1000
1000
3000
3000
2000
3F80
2000
6000
6000
4000
4000
C000
C000
C000
FF00
ENDCHAR

STARTCHAR char70
ENCODING 70
SWIDTH 35 0
DWIDTH 10 0
BBX 11 18 0 0
BITMAP
1FE0
1800
1800
1000
1000
3000
3000
3000
3F80
6000
6000
6000
4000
4000
C000
C000
C000
8000
ENDCHAR

STARTCHAR char71
ENCODING 71
SWIDTH 10 0
DWIDTH 13 0
BBX 11 18 1 0
BITMAP
0780
18C0
3060
2020
2020
6000
4000
4000
4000
C7C0
80C0
80C0
80C0
8080
8180
C180
4380
3D00
ENDCHAR

STARTCHAR char72
ENCODING 72
SWIDTH 13 0
DWIDTH 14 0
BBX 13 18 0 0
BITMAP
1808
1808
1018
1018
3018
3010
3010
2030
3FF0
6020
6020
6060
4060
C060
C040
C040
80C0
80C0
ENDCHAR

STARTCHAR char73
ENCODING 73
SWIDTH 17 0
DWIDTH 5 0
BBX 5 18 0 0
BITMAP
08
18
18
10
10
30
30
30
20
20
60
60
60
40
40
C0
C0
80
ENDCHAR

STARTCHAR char74
ENCODING 74
SWIDTH 35 0
DWIDTH 10 0
BBX 10 18 0 0
BITMAP
00C0
00C0
0080
0080
0180
0180
0180
0100
0100
0300
0300
0300
0200
8200
8600
8600
CC00
7800
ENDCHAR

STARTCHAR char75
ENCODING 75
SWIDTH 3 0
DWIDTH 11 0
BBX 13 18 0 0
BITMAP
1838
1870
1860
10C0
3180
3300
3600
2C00
3C00
7600
6600
6200
4300
4300
C100
C180
8180
8080
ENDCHAR

STARTCHAR char76
ENCODING 76
SWIDTH 35 0
DWIDTH 10 0
BBX 8 18 0 0
BITMAP
18
18
10
10
10
30
30
20
20
20
60
60
40
40
40
C0
C0
FF
ENDCHAR

STARTCHAR char77
ENCODING 77
SWIDTH 24 0
DWIDTH 17 0
BBX 17 18 0 0
BITMAP
1C0380
1C0380
1C0780
140700
340D00
340F00
260B00
261300
661200
662200
662600
464600
464400
C28400
C28C00
830C00
830C00
820800
ENDCHAR

STARTCHAR char78
ENCODING 78
SWIDTH 13 0
DWIDTH 14 0
BBX 13 18 0 0
BITMAP
1808
1808
1C18
1418
3418
3410
3610
2630
2230
6220
6320
6320
4160
4160
C1C0
C1C0
80C0
80C0
ENDCHAR

STARTCHAR char79
ENCODING 79
SWIDTH 10 0
DWIDTH 13 0
BBX 11 18 1 0
BITMAP
0780
18C0
3060
2020
6020
6020
4020
C020
C060
8060
8040
80C0
80C0
8080
8180
C100
4200
3C00
ENDCHAR

STARTCHAR char80
ENCODING 80
SWIDTH 3 0
DWIDTH 11 0
BBX 11 18 0 0
BITMAP
1F80
18C0
1060
1020
3020
3020
3020
2060
21C0
7F00
6000
6000
4000
4000
C000
C000
8000
8000
ENDCHAR

STARTCHAR char81
ENCODING 81
SWIDTH 10 0
DWIDTH 13 0
BBX 11 19 1 -1
BITMAP
0780
18C0
3060
2020
2020
6020
4020
4060
4060
8060
8040
80C0
80C0
8080
8D80
C700
4300
3CC0
0040
ENDCHAR

STARTCHAR char82
ENCODING 82
SWIDTH 10 0
DWIDTH 13 0
BBX 12 18 0 0
BITMAP
1F80
1860
1030
1010
3010
3010
3030
2060
20C0
7F80
60C0
6040
4040
4040
C0C0
C080
8080
80C0
ENDCHAR

STARTCHAR char83
ENCODING 83
SWIDTH 6 0
DWIDTH 12 0
BBX 11 18 0 0
BITMAP
0780
1C60
1820
3020
2020
2000
3000
1800
0C00
0700
0180
00C0
0040
8040
80C0
8080
4180
3F00
ENDCHAR

STARTCHAR char84
ENCODING 84
SWIDTH 32 0
DWIDTH 9 0
BBX 9 18 2 0
BITMAP
FF80
1800
1800
1800
1000
1000
3000
3000
2000
2000
2000
6000
6000
4000
4000
C000
C000
C000
ENDCHAR

STARTCHAR char85
ENCODING 85
SWIDTH 10 0
DWIDTH 13 0
BBX 12 18 1 0
BITMAP
3010
2030
2030
2030
2020
6020
4060
4060
4040
4040
4040
80C0
80C0
8080
8080
8180
4300
3E00
ENDCHAR

STARTCHAR char86
ENCODING 86
SWIDTH 3 0
DWIDTH 11 0
BBX 11 18 2 0
BITMAP
8060
80C0
C0C0
C080
C180
C100
C300
C200
C600
C400
4C00
4800
4800
5000
5000
6000
6000
4000
ENDCHAR

STARTCHAR char87
ENCODING 87
SWIDTH 21 0
DWIDTH 16 0
BBX 16 18 1 0
BITMAP
8181
C181
4183
4382
4386
4286
4684
468C
4C8C
4C88
4898
5890
58B0
50B0
70A0
70E0
60E0
60C0
ENDCHAR

STARTCHAR char88
ENCODING 88
SWIDTH 3 0
DWIDTH 11 0
BBX 14 18 -2 0
BITMAP
080C
0C18
0C18
0430
0420
0660
02C0
0280
0380
0300
0780
0D80
0C80
18C0
30C0
3040
6060
C060
ENDCHAR

STARTCHAR char89
ENCODING 89
SWIDTH 35 0
DWIDTH 10 0
BBX 10 18 2 0
BITMAP
80C0
80C0
C180
4300
4300
4600
6400
2C00
3800
3000
3000
2000
2000
6000
6000
6000
4000
4000
ENDCHAR

STARTCHAR char90
ENCODING 90
SWIDTH 35 0
DWIDTH 10 0
BBX 12 18 -1 0
BITMAP
1FF0
0060
0060
00C0
0080
0180
0300
0200
0600
0C00
0C00
1800
1000
3000
6000
6000
C000
FF80
ENDCHAR

STARTCHAR char91
ENCODING 91
SWIDTH 17 0
DWIDTH 5 0
BBX 8 23 -1 -4
BITMAP
07
04
0C
08
08
08
18
18
10
10
10
30
30
20
20
20
60
60
40
40
40
C0
F0
ENDCHAR

STARTCHAR char92
ENCODING 92
SWIDTH 25 0
DWIDTH 7 0
BBX 7 18 0 0
BITMAP
C0
C0
40
40
60
60
20
30
30
10
18
18
08
0C
0C
04
06
06
ENDCHAR

STARTCHAR char93
ENCODING 93
SWIDTH 17 0
DWIDTH 5 0
BBX 8 23 -2 -4
BITMAP
0F
02
02
02
02
06
04
04
04
04
0C
08
08
08
08
18
10
10
10
30
30
20
E0
ENDCHAR

STARTCHAR char94
ENCODING 94
SWIDTH 0 0
DWIDTH 0 0
BBX 6 3 -1 19
BITMAP
18
28
44
ENDCHAR

STARTCHAR char95
ENCODING 95
SWIDTH 17 0
DWIDTH 15 0
BBX 14 1 0 -3
BITMAP
FFFC
ENDCHAR

STARTCHAR char96
ENCODING 96
SWIDTH 0 0
DWIDTH 0 0
BBX 4 4 -2 14
BITMAP
40
60
20
10
ENDCHAR

STARTCHAR char97
ENCODING 97
SWIDTH 35 0
DWIDTH 10 0
BBX 8 13 0 0
BITMAP
1E
31
61
01
03
07
3A
62
C2
82
86
8E
7A
ENDCHAR

STARTCHAR char98
ENCODING 98
SWIDTH 35 0
DWIDTH 10 0
BBX 10 18 -1 0
BITMAP
0800
0800
1800
1800
1000
1780
18C0
3040
3040
2040
2040
6040
60C0
6080
4180
6100
E300
9E00
ENDCHAR

STARTCHAR char99
ENCODING 99
SWIDTH 32 0
DWIDTH 9 0
BBX 9 13 0 0
BITMAP
1E00
3100
6180
6180
4000
C000
C000
8000
8000
8300
8200
C600
7C00
ENDCHAR

STARTCHAR char100
ENCODING 100
SWIDTH 35 0
DWIDTH 10 0
BBX 11 18 0 0
BITMAP
0060
0060
0060
0040
0040
0EC0
31C0
2180
6080
4080
4180
C100
8100
8100
8300
8300
C600
7A00
ENDCHAR

STARTCHAR char101
ENCODING 101
SWIDTH 35 0
DWIDTH 10 0
BBX 8 13 0 0
BITMAP
1E
33
61
41
41
FF
C0
C0
80
82
82
C4
38
ENDCHAR

STARTCHAR char102
ENCODING 102
SWIDTH 17 0
DWIDTH 5 0
BBX 7 18 0 0
BITMAP
06
0E
18
10
10
7C
30
30
20
20
20
60
60
40
40
C0
C0
80
ENDCHAR

STARTCHAR char103
ENCODING 103
SWIDTH 3 0
DWIDTH 11 0
BBX 11 17 -1 -4
BITMAP
0720
18E0
1040
3040
20C0
60C0
4080
4080
4080
4180
4180
6300
3D00
0100
8300
4600
3C00
ENDCHAR

STARTCHAR char104
ENCODING 104
SWIDTH 3 0
DWIDTH 11 0
BBX 9 18 0 0
BITMAP
1800
1000
1000
1000
3000
3F80
3880
3080
2080
6080
6180
4100
4100
4100
C100
C300
8200
8200
ENDCHAR

STARTCHAR char105
ENCODING 105
SWIDTH 14 0
DWIDTH 4 0
BBX 5 18 0 0
BITMAP
18
10
00
00
00
30
30
20
20
20
60
40
40
40
C0
C0
80
80
ENDCHAR

STARTCHAR char106
ENCODING 106
SWIDTH 14 0
DWIDTH 4 0
BBX 8 22 -3 -4
BITMAP
03
02
00
00
00
06
06
04
04
04
0C
08
08
08
08
18
10
10
10
30
20
C0
ENDCHAR

STARTCHAR char107
ENCODING 107
SWIDTH 32 0
DWIDTH 9 0
BBX 10 18 0 0
BITMAP
1800
1800
1000
1000
3000
3180
2100
2200
2400
6800
7800
6800
4800
4C00
C400
C400
8600
8600
ENDCHAR

STARTCHAR char108
ENCODING 108
SWIDTH 14 0
DWIDTH 4 0
BBX 5 18 0 0
BITMAP
18
18
10
10
10
30
30
20
20
60
60
40
40
40
C0
C0
80
80
ENDCHAR

STARTCHAR char109
ENCODING 109
SWIDTH 24 0
DWIDTH 17 0
BBX 15 13 0 0
BITMAP
3F3C
31C2
2082
2182
6186
6104
4104
4104
C30C
C30C
8208
8208
8618
ENDCHAR

STARTCHAR char110
ENCODING 110
SWIDTH 3 0
DWIDTH 11 0
BBX 9 13 0 0
BITMAP
3700
3880
3080
2080
6080
6180
4100
4100
4100
C300
C300
8200
8200
ENDCHAR

STARTCHAR char111
ENCODING 111
SWIDTH 35 0
DWIDTH 10 0
BBX 9 13 0 0
BITMAP
1F00
3100
2080
6080
4080
C080
8080
8180
8100
8100
8300
4600
3C00
ENDCHAR

STARTCHAR char112
ENCODING 112
SWIDTH 3 0
DWIDTH 11 0
BBX 10 17 -1 -4
BITMAP
1F80
18C0
1840
1040
3040
3040
2040
2040
6080
6080
6100
7300
5E00
C000
C000
8000
8000
ENDCHAR

STARTCHAR char113
ENCODING 113
SWIDTH 35 0
DWIDTH 10 0
BBX 10 17 0 -4
BITMAP
0E40
31C0
2080
6080
4080
C180
C180
8100
8100
8300
8300
C600
7A00
0200
0600
0600
0400
ENDCHAR

STARTCHAR char114
ENCODING 114
SWIDTH 25 0
DWIDTH 7 0
BBX 8 13 0 0
BITMAP
3E
38
30
20
20
60
40
40
40
C0
C0
80
80
ENDCHAR

STARTCHAR char115
ENCODING 115
SWIDTH 32 0
DWIDTH 9 0
BBX 8 13 0 0
BITMAP
1E
21
41
40
40
20
18
0C
02
02
82
84
78
ENDCHAR

STARTCHAR char116
ENCODING 116
SWIDTH 17 0
DWIDTH 5 0
BBX 5 17 1 0
BITMAP
10
30
30
20
78
20
60
40
40
40
40
40
80
80
80
80
E0
ENDCHAR

STARTCHAR char117
ENCODING 117
SWIDTH 3 0
DWIDTH 11 0
BBX 10 13 0 0
BITMAP
30C0
20C0
2080
2080
6080
4180
4100
4100
C100
8100
8300
C600
7A00
ENDCHAR

STARTCHAR char118
ENCODING 118
SWIDTH 32 0
DWIDTH 9 0
BBX 8 13 1 0
BITMAP
C3
C3
C2
C6
C4
CC
C8
58
50
70
60
60
40
ENDCHAR

STARTCHAR char119
ENCODING 119
SWIDTH 10 0
DWIDTH 13 0
BBX 12 13 1 0
BITMAP
8430
8430
8C20
8C60
9C40
94C0
94C0
A580
A580
E500
C700
C600
8600
ENDCHAR

STARTCHAR char120
ENCODING 120
SWIDTH 28 0
DWIDTH 8 0
BBX 11 13 -2 0
BITMAP
1060
18C0
0880
0980
0F00
0600
0400
0E00
1A00
3200
2300
6100
C100
ENDCHAR

STARTCHAR char121
ENCODING 121
SWIDTH 32 0
DWIDTH 9 0
BBX 12 17 -3 -4
BITMAP
0830
0830
0860
0840
08C0
0880
0980
0900
0B00
0A00
0E00
0C00
0C00
0800
0800
1000
6000
ENDCHAR

STARTCHAR char122
ENCODING 122
SWIDTH 28 0
DWIDTH 8 0
BBX 9 13 -1 0
BITMAP
3F80
0180
0100
0200
0600
0400
0800
1800
3000
2000
6000
C000
FE00
ENDCHAR

STARTCHAR char123
ENCODING 123
SWIDTH 32 0
DWIDTH 9 0
BBX 6 23 1 -5
BITMAP
0C
18
10
30
30
30
30
30
30
30
60
C0
60
30
10
10
10
10
10
10
10
18
0C
ENDCHAR

STARTCHAR char124
ENCODING 124
SWIDTH 25 0
DWIDTH 7 0
BBX 1 18 3 0
BITMAP
80
80
80
80
80
80
80
80
80
80
80
80
80
80
80
80
80
80
ENDCHAR

STARTCHAR char125
ENCODING 125
SWIDTH 32 0
DWIDTH 9 0
BBX 6 23 1 -5
BITMAP
E0
30
10
10
10
10
10
10
10
18
0C
0C
08
18
10
30
30
10
10
10
10
30
E0
ENDCHAR

STARTCHAR char126
ENCODING 126
SWIDTH 0 0
DWIDTH 0 0
BBX 7 2 -1 20
BITMAP
72
DC
ENDCHAR

STARTCHAR char128
ENCODING 128
SWIDTH 10 0
DWIDTH 13 0
BBX 13 18 -1 0
BITMAP
01E0
0730
0C18
0808
0808
1808
1000
FFC0
1000
FFC0
2000
2000
2030
2020
2060
3040
10C0
0F00
ENDCHAR

STARTCHAR char130
ENCODING 130
SWIDTH 14 0
DWIDTH 4 0
BBX 3 5 -2 -3
BITMAP
20
20
60
60
40
ENDCHAR

STARTCHAR char131
ENCODING 131
SWIDTH 0 0
DWIDTH 0 0
BBX 6 3 -1 19
BITMAP
18
28
44
ENDCHAR

STARTCHAR char132
ENCODING 132
SWIDTH 25 0
DWIDTH 7 0
BBX 7 5 -2 -3
BITMAP
24
24
6C
24
48
ENDCHAR

STARTCHAR char133
ENCODING 133
SWIDTH 24 0
DWIDTH 27 0
BBX 19 3 3 0
BITMAP
E0E0E0
E0E0E0
E0E0E0
ENDCHAR

STARTCHAR char134
ENCODING 134
SWIDTH 35 0
DWIDTH 10 0
BBX 9 21 1 -3
BITMAP
0600
0400
0400
0400
0C00
0800
FF80
0800
1800
1800
1000
1000
1000
3000
3000
2000
2000
2000
6000
4000
4000
ENDCHAR

STARTCHAR char135
ENCODING 135
SWIDTH 16 0
DWIDTH 25 0
BBX 0 0 0 0
BITMAP
ENDCHAR

STARTCHAR char136
ENCODING 136
SWIDTH 0 0
DWIDTH 0 0
BBX 7 4 -2 14
BITMAP
18
2C
64
C0
ENDCHAR

STARTCHAR char137
ENCODING 137
SWIDTH 16 0
DWIDTH 25 0
BBX 0 0 0 0
BITMAP
ENDCHAR

STARTCHAR char139
ENCODING 139
SWIDTH 32 0
DWIDTH 9 0
BBX 4 8 2 3
BITMAP
10
30
70
C0
C0
60
30
10
ENDCHAR

STARTCHAR char140
ENCODING 140
SWIDTH 31 0
DWIDTH 19 0
BBX 18 18 1 0
BITMAP
073FC0
18BFC0
306000
206000
606000
606000
404000
404000
40FF00
80C000
808000
808000
808000
818000
818000
830000
C70000
7DFE00
ENDCHAR

STARTCHAR char142
ENCODING 142
SWIDTH 16 0
DWIDTH 25 0
BBX 0 0 0 0
BITMAP
ENDCHAR

STARTCHAR char144
ENCODING 144
SWIDTH 16 0
DWIDTH 25 0
BBX 0 0 0 0
BITMAP
ENDCHAR

STARTCHAR char145
ENCODING 145
SWIDTH 14 0
DWIDTH 4 0
BBX 3 6 2 12
BITMAP
20
40
40
60
C0
80
ENDCHAR

STARTCHAR char146
ENCODING 146
SWIDTH 14 0
DWIDTH 4 0
BBX 3 7 2 12
BITMAP
20
60
60
40
40
C0
80
ENDCHAR

STARTCHAR char147
ENCODING 147
SWIDTH 25 0
DWIDTH 7 0
BBX 6 6 2 12
BITMAP
04
48
C8
B4
D8
10
ENDCHAR

STARTCHAR char148
ENCODING 148
SWIDTH 25 0
DWIDTH 7 0
BBX 6 7 2 12
BITMAP
24
6C
4C
48
48
D8
90
ENDCHAR

STARTCHAR char149
ENCODING 149
SWIDTH 32 0
DWIDTH 9 0
BBX 7 6 1 6
BITMAP
38
7C
FE
FE
FE
38
ENDCHAR

STARTCHAR char150
ENCODING 150
SWIDTH 3 0
DWIDTH 11 0
BBX 9 1 1 7
BITMAP
FF80
ENDCHAR

STARTCHAR char151
ENCODING 151
SWIDTH 10 0
DWIDTH 13 0
BBX 12 1 0 7
BITMAP
FFF0
ENDCHAR

STARTCHAR char152
ENCODING 152
SWIDTH 0 0
DWIDTH 0 0
BBX 7 2 -2 15
BITMAP
72
8C
ENDCHAR

STARTCHAR char153
ENCODING 153
SWIDTH 9 0
DWIDTH 23 0
BBX 20 9 0 7
BITMAP
FF3060
9130A0
1038A0
1028A0
102920
102D20
102620
102620
3C72F0
ENDCHAR

STARTCHAR char154
ENCODING 154
SWIDTH 16 0
DWIDTH 25 0
BBX 0 0 0 0
BITMAP
ENDCHAR

STARTCHAR char155
ENCODING 155
SWIDTH 32 0
DWIDTH 9 0
BBX 4 8 2 3
BITMAP
80
C0
70
30
30
70
C0
80
ENDCHAR

STARTCHAR char156
ENCODING 156
SWIDTH 24 0
DWIDTH 17 0
BBX 15 13 0 0
BITMAP
1E3C
3144
21C2
6182
4182
C1FE
8100
8100
8100
8304
830C
C788
7CF0
ENDCHAR

STARTCHAR char159
ENCODING 159
SWIDTH 35 0
DWIDTH 10 0
BBX 10 21 2 0
BITMAP
1B00
0200
0000
80C0
80C0
C180
C100
4300
4600
6400
2C00
3800
3000
3000
2000
2000
6000
6000
6000
4000
4000
ENDCHAR

STARTCHAR char160
ENCODING 160
SWIDTH 35 0
DWIDTH 10 0
BBX 0 0 0 0
BITMAP
ENDCHAR

STARTCHAR char161
ENCODING 161
SWIDTH 17 0
DWIDTH 5 0
BBX 6 18 0 0
BITMAP
0C
08
00
00
00
10
10
10
10
30
20
20
20
60
60
40
40
C0
ENDCHAR

STARTCHAR char162
ENCODING 162
SWIDTH 32 0
DWIDTH 9 0
BBX 9 17 0 -2
BITMAP
0200
0400
1F00
3580
2480
6480
4800
C800
C800
8800
9000
9300
9200
D600
7C00
2000
2000
ENDCHAR

STARTCHAR char163
ENCODING 163
SWIDTH 3 0
DWIDTH 11 0
BBX 12 18 -1 0
BITMAP
03C0
0620
0C30
0810
0810
0800
0800
0800
0800
3F80
0800
0800
0800
0800
1000
3000
7EC0
4780
ENDCHAR

STARTCHAR char164
ENCODING 164
SWIDTH 0 0
DWIDTH 0 0
BBX 5 3 1 19
BITMAP
18
30
60
ENDCHAR

STARTCHAR char165
ENCODING 165
SWIDTH 0 0
DWIDTH 0 0
BBX 6 3 0 19
BITMAP
88
58
70
ENDCHAR

STARTCHAR char166
ENCODING 166
SWIDTH 16 0
DWIDTH 25 0
BBX 0 0 0 0
BITMAP
ENDCHAR

STARTCHAR char167
ENCODING 167
SWIDTH 3 0
DWIDTH 11 0
BBX 10 22 0 -4
BITMAP
0700
0880
1040
1040
1000
0800
1C00
2600
4300
4180
4080
6080
3080
1080
0980
0600
0400
0200
8200
C200
4400
3800
ENDCHAR

STARTCHAR char168
ENCODING 168
SWIDTH 0 0
DWIDTH 0 0
BBX 6 2 -1 15
BITMAP
C8
88
ENDCHAR

STARTCHAR char169
ENCODING 169
SWIDTH 35 0
DWIDTH 20 0
BBX 16 16 1 0
BITMAP
07E0
1818
2004
41F2
4232
8411
8811
8801
8801
8801
8401
4623
43C2
2004
1818
07F0
ENDCHAR

STARTCHAR char170
ENCODING 170
SWIDTH 0 0
DWIDTH 0 0
BBX 5 2 0 19
BITMAP
C8
10
ENDCHAR

STARTCHAR char171
ENCODING 171
SWIDTH 35 0
DWIDTH 10 0
BBX 8 7 1 4
BITMAP
11
33
CC
88
C4
62
22
ENDCHAR

STARTCHAR char172
ENCODING 172
SWIDTH 28 0
DWIDTH 18 0
BBX 16 7 0 0
BITMAP
FFFF
0001
0001
0001
0001
0001
0001
ENDCHAR

STARTCHAR char173
ENCODING 173
SWIDTH 16 0
DWIDTH 25 0
BBX 0 0 0 0
BITMAP
ENDCHAR

STARTCHAR char174
ENCODING 174
SWIDTH 35 0
DWIDTH 20 0
BBX 16 16 1 0
BITMAP
07E0
1818
2004
4FC2
4222
8221
8261
8381
82C1
82E1
8261
4233
4F3A
2004
1818
07F0
ENDCHAR

STARTCHAR char175
ENCODING 175
SWIDTH 16 0
DWIDTH 25 0
BBX 0 0 0 0
BITMAP
ENDCHAR

STARTCHAR char176
ENCODING 176
SWIDTH 35 0
DWIDTH 10 0
BBX 7 8 1 9
BITMAP
38
44
82
82
82
82
44
38
ENDCHAR

STARTCHAR char177
ENCODING 177
SWIDTH 13 0
DWIDTH 14 0
BBX 13 16 0 0
BITMAP
0200
0200
0200
0200
0200
0200
FFF8
0200
0200
0200
0200
0200
0200
0000
0000
FFF8
ENDCHAR

STARTCHAR char178
ENCODING 178
SWIDTH 16 0
DWIDTH 25 0
BBX 0 0 0 0
BITMAP
ENDCHAR

STARTCHAR char179
ENCODING 179
SWIDTH 16 0
DWIDTH 25 0
BBX 0 0 0 0
BITMAP
ENDCHAR

STARTCHAR char180
ENCODING 180
SWIDTH 0 0
DWIDTH 0 0
BBX 5 4 0 14
BITMAP
18
30
60
40
ENDCHAR

STARTCHAR char181
ENCODING 181
SWIDTH 16 0
DWIDTH 25 0
BBX 0 0 0 0
BITMAP
ENDCHAR

STARTCHAR char182
ENCODING 182
SWIDTH 28 0
DWIDTH 18 0
BBX 11 22 2 -4
BITMAP
1FE0
3840
7840
F840
F840
F840
F840
7840
7840
3840
0840
0840
0840
0840
0840
0840
0840
0840
0840
0840
0840
0840
ENDCHAR

STARTCHAR char183
ENCODING 183
SWIDTH 14 0
DWIDTH 4 0
BBX 3 3 1 6
BITMAP
E0
E0
E0
ENDCHAR

STARTCHAR char184
ENCODING 184
SWIDTH 0 0
DWIDTH 0 0
BBX 2 4 -3 -5
BITMAP
40
C0
40
80
ENDCHAR

STARTCHAR char186
ENCODING 186
SWIDTH 0 0
DWIDTH 0 0
BBX 7 2 -1 20
BITMAP
72
DC
ENDCHAR

STARTCHAR char187
ENCODING 187
SWIDTH 35 0
DWIDTH 10 0
BBX 9 7 0 4
BITMAP
2200
6200
3180
1080
3300
4600
8400
ENDCHAR

STARTCHAR char188
ENCODING 188
SWIDTH 16 0
DWIDTH 25 0
BBX 0 0 0 0
BITMAP
ENDCHAR

STARTCHAR char191
ENCODING 191
SWIDTH 35 0
DWIDTH 10 0
BBX 8 18 0 0
BITMAP
06
04
00
00
00
04
04
08
18
30
60
40
80
83
83
82
46
3C
ENDCHAR

STARTCHAR char192
ENCODING 192
SWIDTH 3 0
DWIDTH 11 0
BBX 11 22 -2 0
BITMAP
0180
0180
00C0
0000
00C0
00E0
01E0
0160
0360
0260
0660
0460
0C60
0C60
1860
1860
3FE0
3060
6060
6020
C020
C020
ENDCHAR

STARTCHAR char193
ENCODING 193
SWIDTH 3 0
DWIDTH 11 0
BBX 13 22 -2 0
BITMAP
0018
0030
0060
0000
00C0
00E0
01E0
0160
0360
0260
0660
0460
0C60
0C60
1860
1860
3FE0
3060
6060
6020
C020
C020
ENDCHAR

STARTCHAR char194
ENCODING 194
SWIDTH 3 0
DWIDTH 11 0
BBX 12 22 -2 0
BITMAP
00E0
00A0
0110
0000
00C0
00E0
01E0
0160
0360
0260
0660
0460
0C60
0C60
1860
1860
3FE0
3060
6060
6020
C020
C020
ENDCHAR

STARTCHAR char195
ENCODING 195
SWIDTH 3 0
DWIDTH 11 0
BBX 13 22 -2 0
BITMAP
01C8
0370
0000
0000
00C0
00E0
01E0
0160
0360
0260
0660
0460
0C60
0C60
1860
1860
3FE0
3060
6060
6020
C020
C020
ENDCHAR

STARTCHAR char196
ENCODING 196
SWIDTH 3 0
DWIDTH 11 0
BBX 12 21 -2 0
BITMAP
0190
0110
0000
00C0
00E0
01E0
0160
0360
0260
0660
0460
0C60
0C60
1860
1860
3FE0
3060
6060
6020
C020
C020
ENDCHAR

STARTCHAR char197
ENCODING 197
SWIDTH 3 0
DWIDTH 11 0
BBX 12 23 -2 0
BITMAP
00E0
0190
0110
0190
00E0
00C0
00E0
01E0
0160
0360
0260
0660
0460
0C60
0C60
1860
1860
3FE0
3060
6060
6020
C020
C020
ENDCHAR

STARTCHAR char198
ENCODING 198
SWIDTH 31 0
DWIDTH 19 0
BBX 20 18 -1 0
BITMAP
003FF0
002800
004800
00D800
009800
019800
011000
031000
023FC0
063000
042000
0FE000
086000
106000
306000
204000
604000
407F80
ENDCHAR

STARTCHAR char199
ENCODING 199
SWIDTH 10 0
DWIDTH 13 0
BBX 11 23 1 -5
BITMAP
0780
1CC0
3060
2020
2020
6020
4000
4000
4000
C000
8000
8000
80C0
8080
8180
C100
4300
3C00
0000
3000
3000
2000
6000
ENDCHAR

STARTCHAR char200
ENCODING 200
SWIDTH 35 0
DWIDTH 10 0
BBX 11 22 0 0
BITMAP
0C00
0600
0200
0000
1FE0
1800
1000
1000
1000
3000
3000
2000
3F80
2000
6000
6000
4000
4000
C000
C000
C000
FF00
ENDCHAR

STARTCHAR char201
ENCODING 201
SWIDTH 35 0
DWIDTH 10 0
BBX 11 22 0 0
BITMAP
00C0
0080
0100
0000
1FE0
1800
1000
1000
1000
3000
3000
2000
3F80
2000
6000
6000
4000
4000
C000
C000
C000
FF00
ENDCHAR

STARTCHAR char202
ENCODING 202
SWIDTH 35 0
DWIDTH 10 0
BBX 11 22 0 0
BITMAP
0380
0680
04C0
0000
1FE0
1800
1000
1000
1000
3000
3000
2000
3F80
2000
6000
6000
4000
4000
C000
C000
C000
FF00
ENDCHAR

STARTCHAR char203
ENCODING 203
SWIDTH 35 0
DWIDTH 10 0
BBX 11 21 0 0
BITMAP
06C0
0080
0000
1FE0
1800
1000
1000
1000
3000
3000
2000
3F80
2000
6000
6000
4000
4000
C000
C000
C000
FF00
ENDCHAR

STARTCHAR char204
ENCODING 204
SWIDTH 17 0
DWIDTH 5 0
BBX 5 22 0 0
BITMAP
30
10
18
00
08
18
18
18
10
10
30
30
20
20
60
60
60
40
40
C0
C0
80
ENDCHAR

STARTCHAR char205
ENCODING 205
SWIDTH 17 0
DWIDTH 5 0
BBX 8 22 0 0
BITMAP
03
06
0C
00
08
18
18
18
10
10
30
30
20
20
60
60
60
40
40
C0
C0
80
ENDCHAR

STARTCHAR char206
ENCODING 206
SWIDTH 17 0
DWIDTH 5 0
BBX 7 22 0 0
BITMAP
0C
16
32
00
08
18
18
18
10
10
30
30
20
20
60
60
60
40
40
C0
C0
80
ENDCHAR

STARTCHAR char207
ENCODING 207
SWIDTH 17 0
DWIDTH 5 0
BBX 8 21 0 0
BITMAP
12
02
00
08
18
18
18
10
10
30
30
20
20
60
60
60
40
40
C0
C0
80
ENDCHAR

STARTCHAR char208
ENCODING 208
SWIDTH 16 0
DWIDTH 25 0
BBX 0 0 0 0
BITMAP
ENDCHAR

STARTCHAR char209
ENCODING 209
SWIDTH 13 0
DWIDTH 14 0
BBX 13 22 0 0
BITMAP
0390
02F0
0000
0000
1808
1808
1C08
1418
3418
3410
3610
2630
2230
6220
6320
6320
4160
4160
C1C0
C1C0
80C0
80C0
ENDCHAR

STARTCHAR char210
ENCODING 210
SWIDTH 10 0
DWIDTH 13 0
BBX 11 22 1 0
BITMAP
0400
0600
0200
0000
0780
18C0
3060
2020
6020
6020
4020
C020
C060
8060
8040
80C0
80C0
8080
8180
C100
4200
3C00
ENDCHAR

STARTCHAR char211
ENCODING 211
SWIDTH 10 0
DWIDTH 13 0
BBX 11 22 1 0
BITMAP
0060
00C0
0180
0000
0780
18C0
3060
2020
6020
6020
4020
C020
C060
8060
8040
80C0
80C0
8080
8180
C100
4200
3C00
ENDCHAR

STARTCHAR char212
ENCODING 212
SWIDTH 10 0
DWIDTH 13 0
BBX 11 22 1 0
BITMAP
0380
0280
04C0
0000
0780
18C0
3060
2020
6020
6020
4020
C020
C060
8060
8040
80C0
80C0
8080
8180
C100
4200
3C00
ENDCHAR

STARTCHAR char213
ENCODING 213
SWIDTH 10 0
DWIDTH 13 0
BBX 11 22 1 0
BITMAP
0720
09C0
0000
0000
0F80
18C0
3060
2020
6020
6020
4020
C020
C060
8060
8040
80C0
80C0
8080
8180
C100
4600
3C00
ENDCHAR

STARTCHAR char214
ENCODING 214
SWIDTH 10 0
DWIDTH 13 0
BBX 11 21 1 0
BITMAP
0260
0440
0000
0780
18C0
3060
2020
6020
6020
4020
C020
C060
8060
8040
80C0
80C0
8080
8180
C100
4200
3C00
ENDCHAR

STARTCHAR char215
ENCODING 215
SWIDTH 16 0
DWIDTH 25 0
BBX 0 0 0 0
BITMAP
ENDCHAR

STARTCHAR char216
ENCODING 216
SWIDTH 10 0
DWIDTH 13 0
BBX 13 19 0 -1
BITMAP
03C8
0C70
1830
1070
3050
3090
2090
2130
6230
6230
4420
4860
4860
5040
50C0
6080
6180
9E00
8000
ENDCHAR

STARTCHAR char217
ENCODING 217
SWIDTH 10 0
DWIDTH 13 0
BBX 12 22 1 0
BITMAP
0400
0600
0200
0000
3010
2030
2030
2020
2020
6020
4060
4060
4040
4040
4040
80C0
80C0
8080
8080
8180
4300
3E00
ENDCHAR

STARTCHAR char218
ENCODING 218
SWIDTH 10 0
DWIDTH 13 0
BBX 12 22 1 0
BITMAP
0060
00C0
0180
0000
3010
2030
2030
2020
2020
6020
4060
4060
4040
4040
4040
80C0
80C0
8080
8080
8180
4300
3E00
ENDCHAR

STARTCHAR char219
ENCODING 219
SWIDTH 10 0
DWIDTH 13 0
BBX 12 22 1 0
BITMAP
0380
0280
04C0
0000
3010
2030
2030
2020
2020
6020
4060
4060
4040
4040
4040
80C0
80C0
8080
8080
8180
4300
3E00
ENDCHAR

STARTCHAR char220
ENCODING 220
SWIDTH 10 0
DWIDTH 13 0
BBX 12 21 1 0
BITMAP
0240
0480
0000
3010
2030
2030
2030
2020
6020
4060
4060
4040
4040
4040
80C0
80C0
8080
8080
8180
4300
3E00
ENDCHAR

STARTCHAR char221
ENCODING 221
SWIDTH 16 0
DWIDTH 25 0
BBX 0 0 0 0
BITMAP
ENDCHAR

STARTCHAR char223
ENCODING 223
SWIDTH 3 0
DWIDTH 11 0
BBX 10 18 0 0
BITMAP
0700
0880
1840
1040
3040
30C0
20C0
2380
2600
6100
6180
4180
4180
4180
C100
8300
8200
9E00
ENDCHAR

STARTCHAR char224
ENCODING 224
SWIDTH 35 0
DWIDTH 10 0
BBX 8 18 0 0
BITMAP
18
08
0C
04
00
1E
31
61
01
03
07
3A
62
C2
82
86
8E
7A
ENDCHAR

STARTCHAR char225
ENCODING 225
SWIDTH 35 0
DWIDTH 10 0
BBX 10 18 0 0
BITMAP
0180
0100
0200
0400
0000
1E00
3100
6100
0100
0300
0700
3A00
6200
C200
8200
8600
8E00
7A00
ENDCHAR

STARTCHAR char226
ENCODING 226
SWIDTH 35 0
DWIDTH 10 0
BBX 8 18 0 0
BITMAP
06
0D
09
10
00
1E
31
61
01
03
07
3A
62
C2
82
86
8E
7A
ENDCHAR

STARTCHAR char227
ENCODING 227
SWIDTH 35 0
DWIDTH 10 0
BBX 10 17 0 0
BITMAP
1C80
3380
0000
0000
1E00
3100
6100
0100
0300
0700
3A00
6200
C200
8200
8600
8E00
7A00
ENDCHAR

STARTCHAR char228
ENCODING 228
SWIDTH 35 0
DWIDTH 10 0
BBX 9 17 0 0
BITMAP
1980
1100
0000
0000
1E00
3100
2100
0100
0300
0700
3A00
6200
C200
8200
8600
8E00
7200
ENDCHAR

STARTCHAR char229
ENCODING 229
SWIDTH 35 0
DWIDTH 10 0
BBX 8 19 0 0
BITMAP
06
09
09
09
06
00
1E
31
61
01
03
07
3A
62
C2
86
86
8E
7A
ENDCHAR

STARTCHAR char230
ENCODING 230
SWIDTH 21 0
DWIDTH 16 0
BBX 14 13 0 0
BITMAP
1E78
238C
6184
0104
0304
0FFC
3A00
6200
8200
8608
8618
8F10
71E0
ENDCHAR

STARTCHAR char231
ENCODING 231
SWIDTH 32 0
DWIDTH 9 0
BBX 9 18 0 -5
BITMAP
1E00
3100
6180
6180
4000
C000
C000
8000
8000
8300
8200
C600
7C00
0000
2000
6000
2000
4000
ENDCHAR

STARTCHAR char232
ENCODING 232
SWIDTH 35 0
DWIDTH 10 0
BBX 8 18 0 0
BITMAP
18
08
0C
04
00
1E
33
61
41
41
FF
C0
C0
80
82
82
C4
38
ENDCHAR

STARTCHAR char233
ENCODING 233
SWIDTH 35 0
DWIDTH 10 0
BBX 10 18 0 0
BITMAP
0180
0300
0200
0400
0000
1E00
3300
6100
4100
4100
FF00
C000
C000
8000
8200
8200
C400
3800
ENDCHAR

STARTCHAR char234
ENCODING 234
SWIDTH 35 0
DWIDTH 10 0
BBX 8 18 0 0
BITMAP
06
0F
09
10
00
1E
33
61
41
41
FF
C0
C0
80
82
82
C4
38
ENDCHAR

STARTCHAR char235
ENCODING 235
SWIDTH 35 0
DWIDTH 10 0
BBX 9 17 0 0
BITMAP
1980
1100
0000
0000
1E00
3300
6100
4100
4100
FF00
C000
C000
8000
8200
8200
C400
3800
ENDCHAR

STARTCHAR char236
ENCODING 236
SWIDTH 14 0
DWIDTH 4 0
BBX 4 18 0 0
BITMAP
40
60
20
10
00
30
30
20
20
20
60
40
40
40
C0
C0
80
80
ENDCHAR

STARTCHAR char237
ENCODING 237
SWIDTH 14 0
DWIDTH 4 0
BBX 7 18 0 0
BITMAP
06
0C
18
10
00
30
30
20
20
20
60
40
40
40
C0
C0
80
80
ENDCHAR

STARTCHAR char238
ENCODING 238
SWIDTH 14 0
DWIDTH 4 0
BBX 7 18 0 0
BITMAP
18
2C
64
C0
00
30
30
20
20
20
60
40
40
40
C0
C0
80
80
ENDCHAR

STARTCHAR char239
ENCODING 239
SWIDTH 14 0
DWIDTH 4 0
BBX 7 17 0 0
BITMAP
64
44
00
00
30
30
20
20
20
60
40
40
40
C0
C0
80
80
ENDCHAR

STARTCHAR char241
ENCODING 241
SWIDTH 3 0
DWIDTH 11 0
BBX 10 17 0 0
BITMAP
1E40
1180
0000
0000
3700
3880
3080
2080
6080
6180
4100
4100
4100
C300
C300
8200
8200
ENDCHAR

STARTCHAR char242
ENCODING 242
SWIDTH 35 0
DWIDTH 10 0
BBX 9 18 0 0
BITMAP
1800
0C00
0400
0600
0000
1F00
3100
2080
6080
4080
C080
8080
8180
8100
8100
8300
4600
3C00
ENDCHAR

STARTCHAR char243
ENCODING 243
SWIDTH 35 0
DWIDTH 10 0
BBX 10 18 0 0
BITMAP
0080
0100
0200
0400
0000
1F00
3100
2080
6080
4080
C080
8080
8180
8100
8100
8300
4600
3C00
ENDCHAR

STARTCHAR char244
ENCODING 244
SWIDTH 35 0
DWIDTH 10 0
BBX 9 18 0 0
BITMAP
0300
0500
0880
1000
0000
1F00
3100
2080
6080
4080
C080
8080
8180
8100
8100
8300
4600
3C00
ENDCHAR

STARTCHAR char245
ENCODING 245
SWIDTH 35 0
DWIDTH 10 0
BBX 10 17 0 0
BITMAP
1E40
1380
0000
0000
1F00
3100
2080
6080
4080
C080
8080
8180
8100
8100
8300
4600
3C00
ENDCHAR

STARTCHAR char246
ENCODING 246
SWIDTH 35 0
DWIDTH 10 0
BBX 10 17 0 0
BITMAP
0C80
0880
0000
0000
1F00
3100
6080
6080
4080
C080
8080
8180
8100
8100
8300
4600
3C00
ENDCHAR

STARTCHAR char247
ENCODING 247
SWIDTH 13 0
DWIDTH 14 0
BBX 13 9 0 2
BITMAP
0700
0700
0700
0000
FFF8
0000
0700
0700
0700
ENDCHAR

STARTCHAR char248
ENCODING 248
SWIDTH 35 0
DWIDTH 10 0
BBX 11 15 -1 -1
BITMAP
0020
0720
18C0
10C0
3140
2240
6240
4440
48C0
4880
5080
6180
6300
BE00
8000
ENDCHAR

STARTCHAR char249
ENCODING 249
SWIDTH 3 0
DWIDTH 11 0
BBX 10 18 0 0
BITMAP
0800
0C00
0400
0200
0000
30C0
2080
2080
2080
6080
4180
4100
4100
C100
8100
8300
C600
7A00
ENDCHAR

STARTCHAR char250
ENCODING 250
SWIDTH 3 0
DWIDTH 11 0
BBX 10 18 0 0
BITMAP
00C0
0180
0300
0600
0000
30C0
2080
2080
2080
6080
4180
4100
4100
C100
8100
8300
C600
7A00
ENDCHAR

STARTCHAR char251
ENCODING 251
SWIDTH 3 0
DWIDTH 11 0
BBX 10 18 0 0
BITMAP
0300
0500
0880
1800
0000
30C0
2080
2080
2080
6080
4180
4100
4100
C100
8100
8300
C600
7A00
ENDCHAR

STARTCHAR char252
ENCODING 252
SWIDTH 3 0
DWIDTH 11 0
BBX 10 17 0 0
BITMAP
0CC0
0880
0000
0000
20C0
2080
2080
6080
6080
4180
4100
4100
C100
8300
8300
C600
7A00
ENDCHAR

STARTCHAR char255
ENCODING 255
SWIDTH 32 0
DWIDTH 9 0
BBX 12 21 -3 -4
BITMAP
0220
0420
0000
0000
0830
0820
0860
0840
08C0
0880
0980
0900
0B00
0A00
0E00
0C00
0C00
0800
0800
1000
6000
ENDCHAR
ENDFONT
